<mxfile host="drawio-plugin" modified="2021-06-06T16:35:25.788Z" agent="5.0 (X11; Linux x86_64) AppleWebKit/537.36 (KHTML, like Gecko) Chrome/87.0.4280.141 Safari/537.36" etag="T-IXa5Xk8Ir7NygqzatK" version="14.6.6" type="embed"><diagram id="R2lEEEUBdFMjLlhIrx00" name="Page-1"><mxGraphModel dx="1802" dy="371" grid="1" gridSize="10" guides="1" tooltips="1" connect="1" arrows="0" fold="1" page="1" pageScale="1" pageWidth="850" pageHeight="1100" math="0" shadow="0" extFonts="Permanent Marker^https://fonts.googleapis.com/css?family=Permanent+Marker"><root><mxCell id="0"/><mxCell id="1" parent="0"/><mxCell id="C-vyLk0tnHw3VtMMgP7b-2" value="Address" style="shape=table;startSize=30;container=1;collapsible=1;childLayout=tableLayout;fixedRows=1;rowLines=0;fontStyle=1;align=center;resizeLast=1;" parent="1" vertex="1"><mxGeometry x="810" y="160" width="250" height="180" as="geometry"/></mxCell><mxCell id="C-vyLk0tnHw3VtMMgP7b-3" value="" style="shape=partialRectangle;collapsible=0;dropTarget=0;pointerEvents=0;fillColor=none;points=[[0,0.5],[1,0.5]];portConstraint=eastwest;top=0;left=0;right=0;bottom=1;" parent="C-vyLk0tnHw3VtMMgP7b-2" vertex="1"><mxGeometry y="30" width="250" height="30" as="geometry"/></mxCell><mxCell id="C-vyLk0tnHw3VtMMgP7b-4" value="PK" style="shape=partialRectangle;overflow=hidden;connectable=0;fillColor=none;top=0;left=0;bottom=0;right=0;fontStyle=1;" parent="C-vyLk0tnHw3VtMMgP7b-3" vertex="1"><mxGeometry width="30" height="30" as="geometry"/></mxCell><mxCell id="C-vyLk0tnHw3VtMMgP7b-5" value="address_id serial8 NOT NULL" style="shape=partialRectangle;overflow=hidden;connectable=0;fillColor=none;top=0;left=0;bottom=0;right=0;align=left;spacingLeft=6;fontStyle=5;" parent="C-vyLk0tnHw3VtMMgP7b-3" vertex="1"><mxGeometry x="30" width="220" height="30" as="geometry"/></mxCell><mxCell id="C-vyLk0tnHw3VtMMgP7b-9" value="" style="shape=partialRectangle;collapsible=0;dropTarget=0;pointerEvents=0;fillColor=none;points=[[0,0.5],[1,0.5]];portConstraint=eastwest;top=0;left=0;right=0;bottom=0;" parent="C-vyLk0tnHw3VtMMgP7b-2" vertex="1"><mxGeometry y="60" width="250" height="30" as="geometry"/></mxCell><mxCell id="C-vyLk0tnHw3VtMMgP7b-10" value="FK" style="shape=partialRectangle;overflow=hidden;connectable=0;fillColor=none;top=0;left=0;bottom=0;right=0;" parent="C-vyLk0tnHw3VtMMgP7b-9" vertex="1"><mxGeometry width="30" height="30" as="geometry"/></mxCell><mxCell id="C-vyLk0tnHw3VtMMgP7b-11" value="city_id int8 NOT NULL" style="shape=partialRectangle;overflow=hidden;connectable=0;fillColor=none;top=0;left=0;bottom=0;right=0;align=left;spacingLeft=6;" parent="C-vyLk0tnHw3VtMMgP7b-9" vertex="1"><mxGeometry x="30" width="220" height="30" as="geometry"/></mxCell><mxCell id="EBqHYZukkpAn7IfvHrwy-91" value="" style="shape=partialRectangle;collapsible=0;dropTarget=0;pointerEvents=0;fillColor=none;points=[[0,0.5],[1,0.5]];portConstraint=eastwest;top=0;left=0;right=0;bottom=0;" parent="C-vyLk0tnHw3VtMMgP7b-2" vertex="1"><mxGeometry y="90" width="250" height="30" as="geometry"/></mxCell><mxCell id="EBqHYZukkpAn7IfvHrwy-92" value="FK" style="shape=partialRectangle;overflow=hidden;connectable=0;fillColor=none;top=0;left=0;bottom=0;right=0;" parent="EBqHYZukkpAn7IfvHrwy-91" vertex="1"><mxGeometry width="30" height="30" as="geometry"/></mxCell><mxCell id="EBqHYZukkpAn7IfvHrwy-93" value="street_id int8 NULL" style="shape=partialRectangle;overflow=hidden;connectable=0;fillColor=none;top=0;left=0;bottom=0;right=0;align=left;spacingLeft=6;" parent="EBqHYZukkpAn7IfvHrwy-91" vertex="1"><mxGeometry x="30" width="220" height="30" as="geometry"/></mxCell><mxCell id="EBqHYZukkpAn7IfvHrwy-94" value="" style="shape=partialRectangle;collapsible=0;dropTarget=0;pointerEvents=0;fillColor=none;points=[[0,0.5],[1,0.5]];portConstraint=eastwest;top=0;left=0;right=0;bottom=0;" parent="C-vyLk0tnHw3VtMMgP7b-2" vertex="1"><mxGeometry y="120" width="250" height="30" as="geometry"/></mxCell><mxCell id="EBqHYZukkpAn7IfvHrwy-95" value="FK" style="shape=partialRectangle;overflow=hidden;connectable=0;fillColor=none;top=0;left=0;bottom=0;right=0;" parent="EBqHYZukkpAn7IfvHrwy-94" vertex="1"><mxGeometry width="30" height="30" as="geometry"/></mxCell><mxCell id="EBqHYZukkpAn7IfvHrwy-96" value="house_id int8 NULL" style="shape=partialRectangle;overflow=hidden;connectable=0;fillColor=none;top=0;left=0;bottom=0;right=0;align=left;spacingLeft=6;" parent="EBqHYZukkpAn7IfvHrwy-94" vertex="1"><mxGeometry x="30" width="220" height="30" as="geometry"/></mxCell><mxCell id="EBqHYZukkpAn7IfvHrwy-193" value="" style="shape=partialRectangle;collapsible=0;dropTarget=0;pointerEvents=0;fillColor=none;points=[[0,0.5],[1,0.5]];portConstraint=eastwest;top=0;left=0;right=0;bottom=0;" parent="C-vyLk0tnHw3VtMMgP7b-2" vertex="1"><mxGeometry y="150" width="250" height="30" as="geometry"/></mxCell><mxCell id="EBqHYZukkpAn7IfvHrwy-194" value="" style="shape=partialRectangle;overflow=hidden;connectable=0;fillColor=none;top=0;left=0;bottom=0;right=0;" parent="EBqHYZukkpAn7IfvHrwy-193" vertex="1"><mxGeometry width="30" height="30" as="geometry"/></mxCell><mxCell id="EBqHYZukkpAn7IfvHrwy-195" value="phone_number varchar(13)NULL" style="shape=partialRectangle;overflow=hidden;connectable=0;fillColor=none;top=0;left=0;bottom=0;right=0;align=left;spacingLeft=6;" parent="EBqHYZukkpAn7IfvHrwy-193" vertex="1"><mxGeometry x="30" width="220" height="30" as="geometry"/></mxCell><mxCell id="C-vyLk0tnHw3VtMMgP7b-23" value="Customer" style="shape=table;startSize=30;container=1;collapsible=1;childLayout=tableLayout;fixedRows=1;rowLines=0;fontStyle=1;align=center;resizeLast=1;" parent="1" vertex="1"><mxGeometry x="330" y="70" width="250" height="170" as="geometry"/></mxCell><mxCell id="C-vyLk0tnHw3VtMMgP7b-24" value="" style="shape=partialRectangle;collapsible=0;dropTarget=0;pointerEvents=0;fillColor=none;points=[[0,0.5],[1,0.5]];portConstraint=eastwest;top=0;left=0;right=0;bottom=1;" parent="C-vyLk0tnHw3VtMMgP7b-23" vertex="1"><mxGeometry y="30" width="250" height="30" as="geometry"/></mxCell><mxCell id="C-vyLk0tnHw3VtMMgP7b-25" value="PK" style="shape=partialRectangle;overflow=hidden;connectable=0;fillColor=none;top=0;left=0;bottom=0;right=0;fontStyle=1;" parent="C-vyLk0tnHw3VtMMgP7b-24" vertex="1"><mxGeometry width="30" height="30" as="geometry"/></mxCell><mxCell id="C-vyLk0tnHw3VtMMgP7b-26" value="customer_id serial8 NOT NULL " style="shape=partialRectangle;overflow=hidden;connectable=0;fillColor=none;top=0;left=0;bottom=0;right=0;align=left;spacingLeft=6;fontStyle=5;" parent="C-vyLk0tnHw3VtMMgP7b-24" vertex="1"><mxGeometry x="30" width="220" height="30" as="geometry"/></mxCell><mxCell id="C-vyLk0tnHw3VtMMgP7b-27" value="" style="shape=partialRectangle;collapsible=0;dropTarget=0;pointerEvents=0;fillColor=none;points=[[0,0.5],[1,0.5]];portConstraint=eastwest;top=0;left=0;right=0;bottom=0;" parent="C-vyLk0tnHw3VtMMgP7b-23" vertex="1"><mxGeometry y="60" width="250" height="30" as="geometry"/></mxCell><mxCell id="C-vyLk0tnHw3VtMMgP7b-28" value="" style="shape=partialRectangle;overflow=hidden;connectable=0;fillColor=none;top=0;left=0;bottom=0;right=0;" parent="C-vyLk0tnHw3VtMMgP7b-27" vertex="1"><mxGeometry width="30" height="30" as="geometry"/></mxCell><mxCell id="C-vyLk0tnHw3VtMMgP7b-29" value="first_name varchar(50) NOT NULL" style="shape=partialRectangle;overflow=hidden;connectable=0;fillColor=none;top=0;left=0;bottom=0;right=0;align=left;spacingLeft=6;" parent="C-vyLk0tnHw3VtMMgP7b-27" vertex="1"><mxGeometry x="30" width="220" height="30" as="geometry"/></mxCell><mxCell id="EBqHYZukkpAn7IfvHrwy-2" value="" style="shape=partialRectangle;collapsible=0;dropTarget=0;pointerEvents=0;fillColor=none;points=[[0,0.5],[1,0.5]];portConstraint=eastwest;top=0;left=0;right=0;bottom=0;" parent="C-vyLk0tnHw3VtMMgP7b-23" vertex="1"><mxGeometry y="90" width="250" height="30" as="geometry"/></mxCell><mxCell id="EBqHYZukkpAn7IfvHrwy-3" value="" style="shape=partialRectangle;overflow=hidden;connectable=0;fillColor=none;top=0;left=0;bottom=0;right=0;" parent="EBqHYZukkpAn7IfvHrwy-2" vertex="1"><mxGeometry width="30" height="30" as="geometry"/></mxCell><mxCell id="EBqHYZukkpAn7IfvHrwy-4" value="last_name varchar(50) NOT NULL" style="shape=partialRectangle;overflow=hidden;connectable=0;fillColor=none;top=0;left=0;bottom=0;right=0;align=left;spacingLeft=6;" parent="EBqHYZukkpAn7IfvHrwy-2" vertex="1"><mxGeometry x="30" width="220" height="30" as="geometry"/></mxCell><mxCell id="EBqHYZukkpAn7IfvHrwy-117" value="" style="shape=partialRectangle;collapsible=0;dropTarget=0;pointerEvents=0;fillColor=none;points=[[0,0.5],[1,0.5]];portConstraint=eastwest;top=0;left=0;right=0;bottom=0;" parent="C-vyLk0tnHw3VtMMgP7b-23" vertex="1"><mxGeometry y="120" width="250" height="30" as="geometry"/></mxCell><mxCell id="EBqHYZukkpAn7IfvHrwy-118" value="FK" style="shape=partialRectangle;overflow=hidden;connectable=0;fillColor=none;top=0;left=0;bottom=0;right=0;" parent="EBqHYZukkpAn7IfvHrwy-117" vertex="1"><mxGeometry width="30" height="30" as="geometry"/></mxCell><mxCell id="EBqHYZukkpAn7IfvHrwy-119" value="address_id int8 NOT NULL" style="shape=partialRectangle;overflow=hidden;connectable=0;fillColor=none;top=0;left=0;bottom=0;right=0;align=left;spacingLeft=6;" parent="EBqHYZukkpAn7IfvHrwy-117" vertex="1"><mxGeometry x="30" width="220" height="30" as="geometry"/></mxCell><mxCell id="EBqHYZukkpAn7IfvHrwy-8" value="Branch" style="shape=table;startSize=30;container=1;collapsible=1;childLayout=tableLayout;fixedRows=1;rowLines=0;fontStyle=1;align=center;resizeLast=1;" parent="1" vertex="1"><mxGeometry x="520" y="420" width="220" height="100" as="geometry"/></mxCell><mxCell id="EBqHYZukkpAn7IfvHrwy-9" value="" style="shape=partialRectangle;collapsible=0;dropTarget=0;pointerEvents=0;fillColor=none;top=0;left=0;bottom=1;right=0;points=[[0,0.5],[1,0.5]];portConstraint=eastwest;" parent="EBqHYZukkpAn7IfvHrwy-8" vertex="1"><mxGeometry y="30" width="220" height="30" as="geometry"/></mxCell><mxCell id="EBqHYZukkpAn7IfvHrwy-10" value="PK" style="shape=partialRectangle;connectable=0;fillColor=none;top=0;left=0;bottom=0;right=0;fontStyle=1;overflow=hidden;" parent="EBqHYZukkpAn7IfvHrwy-9" vertex="1"><mxGeometry width="30" height="30" as="geometry"/></mxCell><mxCell id="EBqHYZukkpAn7IfvHrwy-11" value="branch_id serial8 NOT NULL" style="shape=partialRectangle;connectable=0;fillColor=none;top=0;left=0;bottom=0;right=0;align=left;spacingLeft=6;fontStyle=5;overflow=hidden;" parent="EBqHYZukkpAn7IfvHrwy-9" vertex="1"><mxGeometry x="30" width="190" height="30" as="geometry"/></mxCell><mxCell id="EBqHYZukkpAn7IfvHrwy-18" value="" style="shape=partialRectangle;collapsible=0;dropTarget=0;pointerEvents=0;fillColor=none;top=0;left=0;bottom=0;right=0;points=[[0,0.5],[1,0.5]];portConstraint=eastwest;" parent="EBqHYZukkpAn7IfvHrwy-8" vertex="1"><mxGeometry y="60" width="220" height="30" as="geometry"/></mxCell><mxCell id="EBqHYZukkpAn7IfvHrwy-19" value="FK" style="shape=partialRectangle;connectable=0;fillColor=none;top=0;left=0;bottom=0;right=0;editable=1;overflow=hidden;" parent="EBqHYZukkpAn7IfvHrwy-18" vertex="1"><mxGeometry width="30" height="30" as="geometry"/></mxCell><mxCell id="EBqHYZukkpAn7IfvHrwy-20" value="address_id int8 NOT NULL" style="shape=partialRectangle;connectable=0;fillColor=none;top=0;left=0;bottom=0;right=0;align=left;spacingLeft=6;overflow=hidden;" parent="EBqHYZukkpAn7IfvHrwy-18" vertex="1"><mxGeometry x="30" width="190" height="30" as="geometry"/></mxCell><mxCell id="EBqHYZukkpAn7IfvHrwy-21" value="Car" style="shape=table;startSize=30;container=1;collapsible=1;childLayout=tableLayout;fixedRows=1;rowLines=0;fontStyle=1;align=center;resizeLast=1;" parent="1" vertex="1"><mxGeometry x="-300" y="330" width="210" height="190" as="geometry"/></mxCell><mxCell id="EBqHYZukkpAn7IfvHrwy-22" value="" style="shape=partialRectangle;collapsible=0;dropTarget=0;pointerEvents=0;fillColor=none;top=0;left=0;bottom=1;right=0;points=[[0,0.5],[1,0.5]];portConstraint=eastwest;" parent="EBqHYZukkpAn7IfvHrwy-21" vertex="1"><mxGeometry y="30" width="210" height="30" as="geometry"/></mxCell><mxCell id="EBqHYZukkpAn7IfvHrwy-23" value="PK" style="shape=partialRectangle;connectable=0;fillColor=none;top=0;left=0;bottom=0;right=0;fontStyle=1;overflow=hidden;" parent="EBqHYZukkpAn7IfvHrwy-22" vertex="1"><mxGeometry width="30" height="30" as="geometry"/></mxCell><mxCell id="EBqHYZukkpAn7IfvHrwy-24" value="car_id serial8 NOT NULL" style="shape=partialRectangle;connectable=0;fillColor=none;top=0;left=0;bottom=0;right=0;align=left;spacingLeft=6;fontStyle=5;overflow=hidden;" parent="EBqHYZukkpAn7IfvHrwy-22" vertex="1"><mxGeometry x="30" width="180" height="30" as="geometry"/></mxCell><mxCell id="EBqHYZukkpAn7IfvHrwy-25" value="" style="shape=partialRectangle;collapsible=0;dropTarget=0;pointerEvents=0;fillColor=none;top=0;left=0;bottom=0;right=0;points=[[0,0.5],[1,0.5]];portConstraint=eastwest;" parent="EBqHYZukkpAn7IfvHrwy-21" vertex="1"><mxGeometry y="60" width="210" height="30" as="geometry"/></mxCell><mxCell id="EBqHYZukkpAn7IfvHrwy-26" value="" style="shape=partialRectangle;connectable=0;fillColor=none;top=0;left=0;bottom=0;right=0;editable=1;overflow=hidden;" parent="EBqHYZukkpAn7IfvHrwy-25" vertex="1"><mxGeometry width="30" height="30" as="geometry"/></mxCell><mxCell id="EBqHYZukkpAn7IfvHrwy-27" value="car_number int8 NOT NULL" style="shape=partialRectangle;connectable=0;fillColor=none;top=0;left=0;bottom=0;right=0;align=left;spacingLeft=6;overflow=hidden;" parent="EBqHYZukkpAn7IfvHrwy-25" vertex="1"><mxGeometry x="30" width="180" height="30" as="geometry"/></mxCell><mxCell id="EBqHYZukkpAn7IfvHrwy-28" value="" style="shape=partialRectangle;collapsible=0;dropTarget=0;pointerEvents=0;fillColor=none;top=0;left=0;bottom=0;right=0;points=[[0,0.5],[1,0.5]];portConstraint=eastwest;" parent="EBqHYZukkpAn7IfvHrwy-21" vertex="1"><mxGeometry y="90" width="210" height="30" as="geometry"/></mxCell><mxCell id="EBqHYZukkpAn7IfvHrwy-29" value="" style="shape=partialRectangle;connectable=0;fillColor=none;top=0;left=0;bottom=0;right=0;editable=1;overflow=hidden;" parent="EBqHYZukkpAn7IfvHrwy-28" vertex="1"><mxGeometry width="30" height="30" as="geometry"/></mxCell><mxCell id="EBqHYZukkpAn7IfvHrwy-30" value="price decimal(5,2) NOT NULL" style="shape=partialRectangle;connectable=0;fillColor=none;top=0;left=0;bottom=0;right=0;align=left;spacingLeft=6;overflow=hidden;" parent="EBqHYZukkpAn7IfvHrwy-28" vertex="1"><mxGeometry x="30" width="180" height="30" as="geometry"/></mxCell><mxCell id="EBqHYZukkpAn7IfvHrwy-123" value="" style="shape=partialRectangle;collapsible=0;dropTarget=0;pointerEvents=0;fillColor=none;top=0;left=0;bottom=0;right=0;points=[[0,0.5],[1,0.5]];portConstraint=eastwest;" parent="EBqHYZukkpAn7IfvHrwy-21" vertex="1"><mxGeometry y="120" width="210" height="30" as="geometry"/></mxCell><mxCell id="EBqHYZukkpAn7IfvHrwy-124" value="FK" style="shape=partialRectangle;connectable=0;fillColor=none;top=0;left=0;bottom=0;right=0;editable=1;overflow=hidden;" parent="EBqHYZukkpAn7IfvHrwy-123" vertex="1"><mxGeometry width="30" height="30" as="geometry"/></mxCell><mxCell id="EBqHYZukkpAn7IfvHrwy-125" value="branch_id int8 NOT NULL" style="shape=partialRectangle;connectable=0;fillColor=none;top=0;left=0;bottom=0;right=0;align=left;spacingLeft=6;overflow=hidden;" parent="EBqHYZukkpAn7IfvHrwy-123" vertex="1"><mxGeometry x="30" width="180" height="30" as="geometry"/></mxCell><mxCell id="EBqHYZukkpAn7IfvHrwy-126" value="" style="shape=partialRectangle;collapsible=0;dropTarget=0;pointerEvents=0;fillColor=none;top=0;left=0;bottom=0;right=0;points=[[0,0.5],[1,0.5]];portConstraint=eastwest;" parent="EBqHYZukkpAn7IfvHrwy-21" vertex="1"><mxGeometry y="150" width="210" height="30" as="geometry"/></mxCell><mxCell id="EBqHYZukkpAn7IfvHrwy-127" value="FK" style="shape=partialRectangle;connectable=0;fillColor=none;top=0;left=0;bottom=0;right=0;editable=1;overflow=hidden;" parent="EBqHYZukkpAn7IfvHrwy-126" vertex="1"><mxGeometry width="30" height="30" as="geometry"/></mxCell><mxCell id="EBqHYZukkpAn7IfvHrwy-128" value="model_id int8 NOT NULL" style="shape=partialRectangle;connectable=0;fillColor=none;top=0;left=0;bottom=0;right=0;align=left;spacingLeft=6;overflow=hidden;" parent="EBqHYZukkpAn7IfvHrwy-126" vertex="1"><mxGeometry x="30" width="180" height="30" as="geometry"/></mxCell><mxCell id="EBqHYZukkpAn7IfvHrwy-34" value="Manufacturer" style="shape=table;startSize=30;container=1;collapsible=1;childLayout=tableLayout;fixedRows=1;rowLines=0;fontStyle=1;align=center;resizeLast=1;" parent="1" vertex="1"><mxGeometry x="470" y="660" width="290" height="100" as="geometry"/></mxCell><mxCell id="EBqHYZukkpAn7IfvHrwy-35" value="" style="shape=partialRectangle;collapsible=0;dropTarget=0;pointerEvents=0;fillColor=none;top=0;left=0;bottom=1;right=0;points=[[0,0.5],[1,0.5]];portConstraint=eastwest;" parent="EBqHYZukkpAn7IfvHrwy-34" vertex="1"><mxGeometry y="30" width="290" height="30" as="geometry"/></mxCell><mxCell id="EBqHYZukkpAn7IfvHrwy-36" value="PK" style="shape=partialRectangle;connectable=0;fillColor=none;top=0;left=0;bottom=0;right=0;fontStyle=1;overflow=hidden;" parent="EBqHYZukkpAn7IfvHrwy-35" vertex="1"><mxGeometry width="30" height="30" as="geometry"/></mxCell><mxCell id="EBqHYZukkpAn7IfvHrwy-37" value="manufacturer_id serial8 NOT NULL" style="shape=partialRectangle;connectable=0;fillColor=none;top=0;left=0;bottom=0;right=0;align=left;spacingLeft=6;fontStyle=5;overflow=hidden;" parent="EBqHYZukkpAn7IfvHrwy-35" vertex="1"><mxGeometry x="30" width="260" height="30" as="geometry"/></mxCell><mxCell id="EBqHYZukkpAn7IfvHrwy-38" value="" style="shape=partialRectangle;collapsible=0;dropTarget=0;pointerEvents=0;fillColor=none;top=0;left=0;bottom=0;right=0;points=[[0,0.5],[1,0.5]];portConstraint=eastwest;" parent="EBqHYZukkpAn7IfvHrwy-34" vertex="1"><mxGeometry y="60" width="290" height="30" as="geometry"/></mxCell><mxCell id="EBqHYZukkpAn7IfvHrwy-39" value="" style="shape=partialRectangle;connectable=0;fillColor=none;top=0;left=0;bottom=0;right=0;editable=1;overflow=hidden;" parent="EBqHYZukkpAn7IfvHrwy-38" vertex="1"><mxGeometry width="30" height="30" as="geometry"/></mxCell><mxCell id="EBqHYZukkpAn7IfvHrwy-40" value="manufacturer_name varchar(50) NOT NULL" style="shape=partialRectangle;connectable=0;fillColor=none;top=0;left=0;bottom=0;right=0;align=left;spacingLeft=6;overflow=hidden;" parent="EBqHYZukkpAn7IfvHrwy-38" vertex="1"><mxGeometry x="30" width="260" height="30" as="geometry"/></mxCell><mxCell id="EBqHYZukkpAn7IfvHrwy-47" value="Model" style="shape=table;startSize=30;container=1;collapsible=1;childLayout=tableLayout;fixedRows=1;rowLines=0;fontStyle=1;align=center;resizeLast=1;" parent="1" vertex="1"><mxGeometry x="80" y="600" width="240" height="160" as="geometry"/></mxCell><mxCell id="EBqHYZukkpAn7IfvHrwy-48" value="" style="shape=partialRectangle;collapsible=0;dropTarget=0;pointerEvents=0;fillColor=none;top=0;left=0;bottom=1;right=0;points=[[0,0.5],[1,0.5]];portConstraint=eastwest;" parent="EBqHYZukkpAn7IfvHrwy-47" vertex="1"><mxGeometry y="30" width="240" height="30" as="geometry"/></mxCell><mxCell id="EBqHYZukkpAn7IfvHrwy-49" value="PK" style="shape=partialRectangle;connectable=0;fillColor=none;top=0;left=0;bottom=0;right=0;fontStyle=1;overflow=hidden;" parent="EBqHYZukkpAn7IfvHrwy-48" vertex="1"><mxGeometry width="30" height="30" as="geometry"/></mxCell><mxCell id="EBqHYZukkpAn7IfvHrwy-50" value="model_id serial8 NOT NULL" style="shape=partialRectangle;connectable=0;fillColor=none;top=0;left=0;bottom=0;right=0;align=left;spacingLeft=6;fontStyle=5;overflow=hidden;" parent="EBqHYZukkpAn7IfvHrwy-48" vertex="1"><mxGeometry x="30" width="210" height="30" as="geometry"/></mxCell><mxCell id="EBqHYZukkpAn7IfvHrwy-51" value="" style="shape=partialRectangle;collapsible=0;dropTarget=0;pointerEvents=0;fillColor=none;top=0;left=0;bottom=0;right=0;points=[[0,0.5],[1,0.5]];portConstraint=eastwest;" parent="EBqHYZukkpAn7IfvHrwy-47" vertex="1"><mxGeometry y="60" width="240" height="30" as="geometry"/></mxCell><mxCell id="EBqHYZukkpAn7IfvHrwy-52" value="" style="shape=partialRectangle;connectable=0;fillColor=none;top=0;left=0;bottom=0;right=0;editable=1;overflow=hidden;" parent="EBqHYZukkpAn7IfvHrwy-51" vertex="1"><mxGeometry width="30" height="30" as="geometry"/></mxCell><mxCell id="EBqHYZukkpAn7IfvHrwy-53" value="model_name varchar(50) NOT NULL" style="shape=partialRectangle;connectable=0;fillColor=none;top=0;left=0;bottom=0;right=0;align=left;spacingLeft=6;overflow=hidden;" parent="EBqHYZukkpAn7IfvHrwy-51" vertex="1"><mxGeometry x="30" width="210" height="30" as="geometry"/></mxCell><mxCell id="EBqHYZukkpAn7IfvHrwy-100" value="" style="shape=partialRectangle;collapsible=0;dropTarget=0;pointerEvents=0;fillColor=none;top=0;left=0;bottom=0;right=0;points=[[0,0.5],[1,0.5]];portConstraint=eastwest;" parent="EBqHYZukkpAn7IfvHrwy-47" vertex="1"><mxGeometry y="90" width="240" height="30" as="geometry"/></mxCell><mxCell id="EBqHYZukkpAn7IfvHrwy-101" value="FK" style="shape=partialRectangle;connectable=0;fillColor=none;top=0;left=0;bottom=0;right=0;editable=1;overflow=hidden;" parent="EBqHYZukkpAn7IfvHrwy-100" vertex="1"><mxGeometry width="30" height="30" as="geometry"/></mxCell><mxCell id="EBqHYZukkpAn7IfvHrwy-102" value="manufacturer_id int8 NOT NULL" style="shape=partialRectangle;connectable=0;fillColor=none;top=0;left=0;bottom=0;right=0;align=left;spacingLeft=6;overflow=hidden;" parent="EBqHYZukkpAn7IfvHrwy-100" vertex="1"><mxGeometry x="30" width="210" height="30" as="geometry"/></mxCell><mxCell id="EBqHYZukkpAn7IfvHrwy-197" value="" style="shape=partialRectangle;collapsible=0;dropTarget=0;pointerEvents=0;fillColor=none;top=0;left=0;bottom=0;right=0;points=[[0,0.5],[1,0.5]];portConstraint=eastwest;" parent="EBqHYZukkpAn7IfvHrwy-47" vertex="1"><mxGeometry y="120" width="240" height="30" as="geometry"/></mxCell><mxCell id="EBqHYZukkpAn7IfvHrwy-198" value="FK" style="shape=partialRectangle;connectable=0;fillColor=none;top=0;left=0;bottom=0;right=0;editable=1;overflow=hidden;" parent="EBqHYZukkpAn7IfvHrwy-197" vertex="1"><mxGeometry width="30" height="30" as="geometry"/></mxCell><mxCell id="EBqHYZukkpAn7IfvHrwy-199" value="equipment_id  int8 NOT NULL" style="shape=partialRectangle;connectable=0;fillColor=none;top=0;left=0;bottom=0;right=0;align=left;spacingLeft=6;overflow=hidden;" parent="EBqHYZukkpAn7IfvHrwy-197" vertex="1"><mxGeometry x="30" width="210" height="30" as="geometry"/></mxCell><mxCell id="EBqHYZukkpAn7IfvHrwy-60" value="Transmission" style="shape=table;startSize=30;container=1;collapsible=1;childLayout=tableLayout;fixedRows=1;rowLines=0;fontStyle=1;align=center;resizeLast=1;" parent="1" vertex="1"><mxGeometry x="-662.5" y="770" width="265" height="90" as="geometry"/></mxCell><mxCell id="EBqHYZukkpAn7IfvHrwy-61" value="" style="shape=partialRectangle;collapsible=0;dropTarget=0;pointerEvents=0;fillColor=none;top=0;left=0;bottom=1;right=0;points=[[0,0.5],[1,0.5]];portConstraint=eastwest;" parent="EBqHYZukkpAn7IfvHrwy-60" vertex="1"><mxGeometry y="30" width="265" height="30" as="geometry"/></mxCell><mxCell id="EBqHYZukkpAn7IfvHrwy-62" value="PK" style="shape=partialRectangle;connectable=0;fillColor=none;top=0;left=0;bottom=0;right=0;fontStyle=1;overflow=hidden;" parent="EBqHYZukkpAn7IfvHrwy-61" vertex="1"><mxGeometry width="30" height="30" as="geometry"/></mxCell><mxCell id="EBqHYZukkpAn7IfvHrwy-63" value="transmission_id serial8 NOT NULL" style="shape=partialRectangle;connectable=0;fillColor=none;top=0;left=0;bottom=0;right=0;align=left;spacingLeft=6;fontStyle=5;overflow=hidden;" parent="EBqHYZukkpAn7IfvHrwy-61" vertex="1"><mxGeometry x="30" width="235" height="30" as="geometry"/></mxCell><mxCell id="EBqHYZukkpAn7IfvHrwy-64" value="" style="shape=partialRectangle;collapsible=0;dropTarget=0;pointerEvents=0;fillColor=none;top=0;left=0;bottom=0;right=0;points=[[0,0.5],[1,0.5]];portConstraint=eastwest;" parent="EBqHYZukkpAn7IfvHrwy-60" vertex="1"><mxGeometry y="60" width="265" height="30" as="geometry"/></mxCell><mxCell id="EBqHYZukkpAn7IfvHrwy-65" value="" style="shape=partialRectangle;connectable=0;fillColor=none;top=0;left=0;bottom=0;right=0;editable=1;overflow=hidden;" parent="EBqHYZukkpAn7IfvHrwy-64" vertex="1"><mxGeometry width="30" height="30" as="geometry"/></mxCell><mxCell id="EBqHYZukkpAn7IfvHrwy-66" value="type_name varchar(20) NOT NULL" style="shape=partialRectangle;connectable=0;fillColor=none;top=0;left=0;bottom=0;right=0;align=left;spacingLeft=6;overflow=hidden;" parent="EBqHYZukkpAn7IfvHrwy-64" vertex="1"><mxGeometry x="30" width="235" height="30" as="geometry"/></mxCell><mxCell id="EBqHYZukkpAn7IfvHrwy-73" value="City" style="shape=table;startSize=30;container=1;collapsible=1;childLayout=tableLayout;fixedRows=1;rowLines=0;fontStyle=1;align=center;resizeLast=1;" parent="1" vertex="1"><mxGeometry x="1120" y="40" width="250" height="100" as="geometry"/></mxCell><mxCell id="EBqHYZukkpAn7IfvHrwy-74" value="" style="shape=partialRectangle;collapsible=0;dropTarget=0;pointerEvents=0;fillColor=none;top=0;left=0;bottom=1;right=0;points=[[0,0.5],[1,0.5]];portConstraint=eastwest;" parent="EBqHYZukkpAn7IfvHrwy-73" vertex="1"><mxGeometry y="30" width="250" height="30" as="geometry"/></mxCell><mxCell id="EBqHYZukkpAn7IfvHrwy-75" value="PK" style="shape=partialRectangle;connectable=0;fillColor=none;top=0;left=0;bottom=0;right=0;fontStyle=1;overflow=hidden;" parent="EBqHYZukkpAn7IfvHrwy-74" vertex="1"><mxGeometry width="30" height="30" as="geometry"/></mxCell><mxCell id="EBqHYZukkpAn7IfvHrwy-76" value="city_id serial8 NOT NULL" style="shape=partialRectangle;connectable=0;fillColor=none;top=0;left=0;bottom=0;right=0;align=left;spacingLeft=6;fontStyle=5;overflow=hidden;" parent="EBqHYZukkpAn7IfvHrwy-74" vertex="1"><mxGeometry x="30" width="220" height="30" as="geometry"/></mxCell><mxCell id="EBqHYZukkpAn7IfvHrwy-80" value="" style="shape=partialRectangle;collapsible=0;dropTarget=0;pointerEvents=0;fillColor=none;top=0;left=0;bottom=0;right=0;points=[[0,0.5],[1,0.5]];portConstraint=eastwest;" parent="EBqHYZukkpAn7IfvHrwy-73" vertex="1"><mxGeometry y="60" width="250" height="30" as="geometry"/></mxCell><mxCell id="EBqHYZukkpAn7IfvHrwy-81" value="" style="shape=partialRectangle;connectable=0;fillColor=none;top=0;left=0;bottom=0;right=0;editable=1;overflow=hidden;" parent="EBqHYZukkpAn7IfvHrwy-80" vertex="1"><mxGeometry width="30" height="30" as="geometry"/></mxCell><mxCell id="EBqHYZukkpAn7IfvHrwy-82" value="city_name varchar(20) NOT NULL" style="shape=partialRectangle;connectable=0;fillColor=none;top=0;left=0;bottom=0;right=0;align=left;spacingLeft=6;overflow=hidden;" parent="EBqHYZukkpAn7IfvHrwy-80" vertex="1"><mxGeometry x="30" width="220" height="30" as="geometry"/></mxCell><mxCell id="EBqHYZukkpAn7IfvHrwy-147" value="Equipment" style="shape=table;startSize=30;container=1;collapsible=1;childLayout=tableLayout;fixedRows=1;rowLines=0;fontStyle=1;align=center;resizeLast=1;" parent="1" vertex="1"><mxGeometry x="-340" y="690" width="230" height="190" as="geometry"/></mxCell><mxCell id="EBqHYZukkpAn7IfvHrwy-148" value="" style="shape=partialRectangle;collapsible=0;dropTarget=0;pointerEvents=0;fillColor=none;top=0;left=0;bottom=1;right=0;points=[[0,0.5],[1,0.5]];portConstraint=eastwest;" parent="EBqHYZukkpAn7IfvHrwy-147" vertex="1"><mxGeometry y="30" width="230" height="30" as="geometry"/></mxCell><mxCell id="EBqHYZukkpAn7IfvHrwy-149" value="PK" style="shape=partialRectangle;connectable=0;fillColor=none;top=0;left=0;bottom=0;right=0;fontStyle=1;overflow=hidden;" parent="EBqHYZukkpAn7IfvHrwy-148" vertex="1"><mxGeometry width="30" height="30" as="geometry"/></mxCell><mxCell id="EBqHYZukkpAn7IfvHrwy-150" value="equipment_id serial8 NOT NULL" style="shape=partialRectangle;connectable=0;fillColor=none;top=0;left=0;bottom=0;right=0;align=left;spacingLeft=6;fontStyle=5;overflow=hidden;" parent="EBqHYZukkpAn7IfvHrwy-148" vertex="1"><mxGeometry x="30" width="200" height="30" as="geometry"/></mxCell><mxCell id="EBqHYZukkpAn7IfvHrwy-151" value="" style="shape=partialRectangle;collapsible=0;dropTarget=0;pointerEvents=0;fillColor=none;top=0;left=0;bottom=0;right=0;points=[[0,0.5],[1,0.5]];portConstraint=eastwest;" parent="EBqHYZukkpAn7IfvHrwy-147" vertex="1"><mxGeometry y="60" width="230" height="50" as="geometry"/></mxCell><mxCell id="EBqHYZukkpAn7IfvHrwy-152" value="FK" style="shape=partialRectangle;connectable=0;fillColor=none;top=0;left=0;bottom=0;right=0;editable=1;overflow=hidden;" parent="EBqHYZukkpAn7IfvHrwy-151" vertex="1"><mxGeometry width="30" height="50" as="geometry"/></mxCell><mxCell id="EBqHYZukkpAn7IfvHrwy-153" value="cylinder_id int8 NULL" style="shape=partialRectangle;connectable=0;fillColor=none;top=0;left=0;bottom=0;right=0;align=left;spacingLeft=6;overflow=hidden;" parent="EBqHYZukkpAn7IfvHrwy-151" vertex="1"><mxGeometry x="30" width="200" height="50" as="geometry"/></mxCell><mxCell id="EBqHYZukkpAn7IfvHrwy-154" value="" style="shape=partialRectangle;collapsible=0;dropTarget=0;pointerEvents=0;fillColor=none;top=0;left=0;bottom=0;right=0;points=[[0,0.5],[1,0.5]];portConstraint=eastwest;" parent="EBqHYZukkpAn7IfvHrwy-147" vertex="1"><mxGeometry y="110" width="230" height="30" as="geometry"/></mxCell><mxCell id="EBqHYZukkpAn7IfvHrwy-155" value="FK" style="shape=partialRectangle;connectable=0;fillColor=none;top=0;left=0;bottom=0;right=0;editable=1;overflow=hidden;" parent="EBqHYZukkpAn7IfvHrwy-154" vertex="1"><mxGeometry width="30" height="30" as="geometry"/></mxCell><mxCell id="EBqHYZukkpAn7IfvHrwy-156" value="transmision_id int8 NULL" style="shape=partialRectangle;connectable=0;fillColor=none;top=0;left=0;bottom=0;right=0;align=left;spacingLeft=6;overflow=hidden;" parent="EBqHYZukkpAn7IfvHrwy-154" vertex="1"><mxGeometry x="30" width="200" height="30" as="geometry"/></mxCell><mxCell id="EBqHYZukkpAn7IfvHrwy-157" value="" style="shape=partialRectangle;collapsible=0;dropTarget=0;pointerEvents=0;fillColor=none;top=0;left=0;bottom=0;right=0;points=[[0,0.5],[1,0.5]];portConstraint=eastwest;" parent="EBqHYZukkpAn7IfvHrwy-147" vertex="1"><mxGeometry y="140" width="230" height="30" as="geometry"/></mxCell><mxCell id="EBqHYZukkpAn7IfvHrwy-158" value="FK" style="shape=partialRectangle;connectable=0;fillColor=none;top=0;left=0;bottom=0;right=0;editable=1;overflow=hidden;" parent="EBqHYZukkpAn7IfvHrwy-157" vertex="1"><mxGeometry width="30" height="30" as="geometry"/></mxCell><mxCell id="EBqHYZukkpAn7IfvHrwy-159" value="capacity_engine_id int8 NULL" style="shape=partialRectangle;connectable=0;fillColor=none;top=0;left=0;bottom=0;right=0;align=left;spacingLeft=6;overflow=hidden;" parent="EBqHYZukkpAn7IfvHrwy-157" vertex="1"><mxGeometry x="30" width="200" height="30" as="geometry"/></mxCell><mxCell id="EBqHYZukkpAn7IfvHrwy-179" value="Street" style="shape=table;startSize=30;container=1;collapsible=1;childLayout=tableLayout;fixedRows=1;rowLines=0;fontStyle=1;align=center;resizeLast=1;" parent="1" vertex="1"><mxGeometry x="1200" y="220" width="260" height="100" as="geometry"/></mxCell><mxCell id="EBqHYZukkpAn7IfvHrwy-180" value="" style="shape=partialRectangle;collapsible=0;dropTarget=0;pointerEvents=0;fillColor=none;top=0;left=0;bottom=1;right=0;points=[[0,0.5],[1,0.5]];portConstraint=eastwest;" parent="EBqHYZukkpAn7IfvHrwy-179" vertex="1"><mxGeometry y="30" width="260" height="30" as="geometry"/></mxCell><mxCell id="EBqHYZukkpAn7IfvHrwy-181" value="PK" style="shape=partialRectangle;connectable=0;fillColor=none;top=0;left=0;bottom=0;right=0;fontStyle=1;overflow=hidden;" parent="EBqHYZukkpAn7IfvHrwy-180" vertex="1"><mxGeometry width="30" height="30" as="geometry"/></mxCell><mxCell id="EBqHYZukkpAn7IfvHrwy-182" value="street_id serial8 NOT NULL&#10; " style="shape=partialRectangle;connectable=0;fillColor=none;top=0;left=0;bottom=0;right=0;align=left;spacingLeft=6;fontStyle=5;overflow=hidden;" parent="EBqHYZukkpAn7IfvHrwy-180" vertex="1"><mxGeometry x="30" width="230" height="30" as="geometry"/></mxCell><mxCell id="EBqHYZukkpAn7IfvHrwy-183" value="" style="shape=partialRectangle;collapsible=0;dropTarget=0;pointerEvents=0;fillColor=none;top=0;left=0;bottom=0;right=0;points=[[0,0.5],[1,0.5]];portConstraint=eastwest;" parent="EBqHYZukkpAn7IfvHrwy-179" vertex="1"><mxGeometry y="60" width="260" height="30" as="geometry"/></mxCell><mxCell id="EBqHYZukkpAn7IfvHrwy-184" value="" style="shape=partialRectangle;connectable=0;fillColor=none;top=0;left=0;bottom=0;right=0;editable=1;overflow=hidden;" parent="EBqHYZukkpAn7IfvHrwy-183" vertex="1"><mxGeometry width="30" height="30" as="geometry"/></mxCell><mxCell id="EBqHYZukkpAn7IfvHrwy-185" value="street_name varchar(50) NOT NULL" style="shape=partialRectangle;connectable=0;fillColor=none;top=0;left=0;bottom=0;right=0;align=left;spacingLeft=6;overflow=hidden;" parent="EBqHYZukkpAn7IfvHrwy-183" vertex="1"><mxGeometry x="30" width="230" height="30" as="geometry"/></mxCell><mxCell id="EBqHYZukkpAn7IfvHrwy-200" value="Сylinder" style="shape=table;startSize=30;container=1;collapsible=1;childLayout=tableLayout;fixedRows=1;rowLines=0;fontStyle=1;align=center;resizeLast=1;" parent="1" vertex="1"><mxGeometry x="-662.5" y="640" width="220" height="100" as="geometry"/></mxCell><mxCell id="EBqHYZukkpAn7IfvHrwy-201" value="" style="shape=partialRectangle;collapsible=0;dropTarget=0;pointerEvents=0;fillColor=none;top=0;left=0;bottom=1;right=0;points=[[0,0.5],[1,0.5]];portConstraint=eastwest;" parent="EBqHYZukkpAn7IfvHrwy-200" vertex="1"><mxGeometry y="30" width="220" height="30" as="geometry"/></mxCell><mxCell id="EBqHYZukkpAn7IfvHrwy-202" value="PK" style="shape=partialRectangle;connectable=0;fillColor=none;top=0;left=0;bottom=0;right=0;fontStyle=1;overflow=hidden;" parent="EBqHYZukkpAn7IfvHrwy-201" vertex="1"><mxGeometry width="30" height="30" as="geometry"/></mxCell><mxCell id="EBqHYZukkpAn7IfvHrwy-203" value="cylinder_id serial8 NOT NULL" style="shape=partialRectangle;connectable=0;fillColor=none;top=0;left=0;bottom=0;right=0;align=left;spacingLeft=6;fontStyle=5;overflow=hidden;" parent="EBqHYZukkpAn7IfvHrwy-201" vertex="1"><mxGeometry x="30" width="190" height="30" as="geometry"/></mxCell><mxCell id="EBqHYZukkpAn7IfvHrwy-204" value="" style="shape=partialRectangle;collapsible=0;dropTarget=0;pointerEvents=0;fillColor=none;top=0;left=0;bottom=0;right=0;points=[[0,0.5],[1,0.5]];portConstraint=eastwest;" parent="EBqHYZukkpAn7IfvHrwy-200" vertex="1"><mxGeometry y="60" width="220" height="30" as="geometry"/></mxCell><mxCell id="EBqHYZukkpAn7IfvHrwy-205" value="" style="shape=partialRectangle;connectable=0;fillColor=none;top=0;left=0;bottom=0;right=0;editable=1;overflow=hidden;" parent="EBqHYZukkpAn7IfvHrwy-204" vertex="1"><mxGeometry width="30" height="30" as="geometry"/></mxCell><mxCell id="EBqHYZukkpAn7IfvHrwy-206" value="quantity int8 NOT NULL" style="shape=partialRectangle;connectable=0;fillColor=none;top=0;left=0;bottom=0;right=0;align=left;spacingLeft=6;overflow=hidden;" parent="EBqHYZukkpAn7IfvHrwy-204" vertex="1"><mxGeometry x="30" width="190" height="30" as="geometry"/></mxCell><mxCell id="EBqHYZukkpAn7IfvHrwy-214" value="Capacity_engine" style="shape=table;startSize=30;container=1;collapsible=1;childLayout=tableLayout;fixedRows=1;rowLines=0;fontStyle=1;align=center;resizeLast=1;" parent="1" vertex="1"><mxGeometry x="30" y="800" width="260" height="100" as="geometry"/></mxCell><mxCell id="EBqHYZukkpAn7IfvHrwy-215" value="" style="shape=partialRectangle;collapsible=0;dropTarget=0;pointerEvents=0;fillColor=none;top=0;left=0;bottom=1;right=0;points=[[0,0.5],[1,0.5]];portConstraint=eastwest;" parent="EBqHYZukkpAn7IfvHrwy-214" vertex="1"><mxGeometry y="30" width="260" height="30" as="geometry"/></mxCell><mxCell id="EBqHYZukkpAn7IfvHrwy-216" value="PK" style="shape=partialRectangle;connectable=0;fillColor=none;top=0;left=0;bottom=0;right=0;fontStyle=1;overflow=hidden;" parent="EBqHYZukkpAn7IfvHrwy-215" vertex="1"><mxGeometry width="30" height="30" as="geometry"/></mxCell><mxCell id="EBqHYZukkpAn7IfvHrwy-217" value="capacity_engine_id  serial8 NOT NULL" style="shape=partialRectangle;connectable=0;fillColor=none;top=0;left=0;bottom=0;right=0;align=left;spacingLeft=6;fontStyle=5;overflow=hidden;" parent="EBqHYZukkpAn7IfvHrwy-215" vertex="1"><mxGeometry x="30" width="230" height="30" as="geometry"/></mxCell><mxCell id="EBqHYZukkpAn7IfvHrwy-218" value="" style="shape=partialRectangle;collapsible=0;dropTarget=0;pointerEvents=0;fillColor=none;top=0;left=0;bottom=0;right=0;points=[[0,0.5],[1,0.5]];portConstraint=eastwest;" parent="EBqHYZukkpAn7IfvHrwy-214" vertex="1"><mxGeometry y="60" width="260" height="30" as="geometry"/></mxCell><mxCell id="EBqHYZukkpAn7IfvHrwy-219" value="" style="shape=partialRectangle;connectable=0;fillColor=none;top=0;left=0;bottom=0;right=0;editable=1;overflow=hidden;" parent="EBqHYZukkpAn7IfvHrwy-218" vertex="1"><mxGeometry width="30" height="30" as="geometry"/></mxCell><mxCell id="EBqHYZukkpAn7IfvHrwy-220" value="capacity float8 NOT NULL" style="shape=partialRectangle;connectable=0;fillColor=none;top=0;left=0;bottom=0;right=0;align=left;spacingLeft=6;overflow=hidden;" parent="EBqHYZukkpAn7IfvHrwy-218" vertex="1"><mxGeometry x="30" width="230" height="30" as="geometry"/></mxCell><mxCell id="EBqHYZukkpAn7IfvHrwy-230" value="House" style="shape=table;startSize=30;container=1;collapsible=1;childLayout=tableLayout;fixedRows=1;rowLines=0;fontStyle=1;align=center;resizeLast=1;" parent="1" vertex="1"><mxGeometry x="1120" y="420" width="210" height="100" as="geometry"/></mxCell><mxCell id="EBqHYZukkpAn7IfvHrwy-231" value="" style="shape=partialRectangle;collapsible=0;dropTarget=0;pointerEvents=0;fillColor=none;top=0;left=0;bottom=1;right=0;points=[[0,0.5],[1,0.5]];portConstraint=eastwest;" parent="EBqHYZukkpAn7IfvHrwy-230" vertex="1"><mxGeometry y="30" width="210" height="30" as="geometry"/></mxCell><mxCell id="EBqHYZukkpAn7IfvHrwy-232" value="PK" style="shape=partialRectangle;connectable=0;fillColor=none;top=0;left=0;bottom=0;right=0;fontStyle=1;overflow=hidden;" parent="EBqHYZukkpAn7IfvHrwy-231" vertex="1"><mxGeometry width="30" height="30" as="geometry"/></mxCell><mxCell id="EBqHYZukkpAn7IfvHrwy-233" value="house_id serial8 NOT NULL" style="shape=partialRectangle;connectable=0;fillColor=none;top=0;left=0;bottom=0;right=0;align=left;spacingLeft=6;fontStyle=5;overflow=hidden;" parent="EBqHYZukkpAn7IfvHrwy-231" vertex="1"><mxGeometry x="30" width="180" height="30" as="geometry"/></mxCell><mxCell id="EBqHYZukkpAn7IfvHrwy-234" value="" style="shape=partialRectangle;collapsible=0;dropTarget=0;pointerEvents=0;fillColor=none;top=0;left=0;bottom=0;right=0;points=[[0,0.5],[1,0.5]];portConstraint=eastwest;" parent="EBqHYZukkpAn7IfvHrwy-230" vertex="1"><mxGeometry y="60" width="210" height="30" as="geometry"/></mxCell><mxCell id="EBqHYZukkpAn7IfvHrwy-235" value="" style="shape=partialRectangle;connectable=0;fillColor=none;top=0;left=0;bottom=0;right=0;editable=1;overflow=hidden;" parent="EBqHYZukkpAn7IfvHrwy-234" vertex="1"><mxGeometry width="30" height="30" as="geometry"/></mxCell><mxCell id="EBqHYZukkpAn7IfvHrwy-236" value="number int8 NOT NULL" style="shape=partialRectangle;connectable=0;fillColor=none;top=0;left=0;bottom=0;right=0;align=left;spacingLeft=6;overflow=hidden;" parent="EBqHYZukkpAn7IfvHrwy-234" vertex="1"><mxGeometry x="30" width="180" height="30" as="geometry"/></mxCell><mxCell id="EBqHYZukkpAn7IfvHrwy-244" value="Renting" style="shape=table;startSize=30;container=1;collapsible=1;childLayout=tableLayout;fixedRows=1;rowLines=0;fontStyle=1;align=center;resizeLast=1;" parent="1" vertex="1"><mxGeometry x="20" y="240" width="250" height="190" as="geometry"/></mxCell><mxCell id="EBqHYZukkpAn7IfvHrwy-245" value="" style="shape=partialRectangle;collapsible=0;dropTarget=0;pointerEvents=0;fillColor=none;top=0;left=0;bottom=1;right=0;points=[[0,0.5],[1,0.5]];portConstraint=eastwest;" parent="EBqHYZukkpAn7IfvHrwy-244" vertex="1"><mxGeometry y="30" width="250" height="30" as="geometry"/></mxCell><mxCell id="EBqHYZukkpAn7IfvHrwy-246" value="PK" style="shape=partialRectangle;connectable=0;fillColor=none;top=0;left=0;bottom=0;right=0;fontStyle=1;overflow=hidden;" parent="EBqHYZukkpAn7IfvHrwy-245" vertex="1"><mxGeometry width="30" height="30" as="geometry"/></mxCell><mxCell id="EBqHYZukkpAn7IfvHrwy-247" value="renting_id serial8 NOT NULL" style="shape=partialRectangle;connectable=0;fillColor=none;top=0;left=0;bottom=0;right=0;align=left;spacingLeft=6;fontStyle=5;overflow=hidden;" parent="EBqHYZukkpAn7IfvHrwy-245" vertex="1"><mxGeometry x="30" width="220" height="30" as="geometry"/></mxCell><mxCell id="EBqHYZukkpAn7IfvHrwy-248" value="" style="shape=partialRectangle;collapsible=0;dropTarget=0;pointerEvents=0;fillColor=none;top=0;left=0;bottom=0;right=0;points=[[0,0.5],[1,0.5]];portConstraint=eastwest;" parent="EBqHYZukkpAn7IfvHrwy-244" vertex="1"><mxGeometry y="60" width="250" height="30" as="geometry"/></mxCell><mxCell id="EBqHYZukkpAn7IfvHrwy-249" value="" style="shape=partialRectangle;connectable=0;fillColor=none;top=0;left=0;bottom=0;right=0;editable=1;overflow=hidden;" parent="EBqHYZukkpAn7IfvHrwy-248" vertex="1"><mxGeometry width="30" height="30" as="geometry"/></mxCell><mxCell id="EBqHYZukkpAn7IfvHrwy-250" value="date_renting date NOT NULL" style="shape=partialRectangle;connectable=0;fillColor=none;top=0;left=0;bottom=0;right=0;align=left;spacingLeft=6;overflow=hidden;" parent="EBqHYZukkpAn7IfvHrwy-248" vertex="1"><mxGeometry x="30" width="220" height="30" as="geometry"/></mxCell><mxCell id="EBqHYZukkpAn7IfvHrwy-251" value="" style="shape=partialRectangle;collapsible=0;dropTarget=0;pointerEvents=0;fillColor=none;top=0;left=0;bottom=0;right=0;points=[[0,0.5],[1,0.5]];portConstraint=eastwest;" parent="EBqHYZukkpAn7IfvHrwy-244" vertex="1"><mxGeometry y="90" width="250" height="30" as="geometry"/></mxCell><mxCell id="EBqHYZukkpAn7IfvHrwy-252" value="" style="shape=partialRectangle;connectable=0;fillColor=none;top=0;left=0;bottom=0;right=0;editable=1;overflow=hidden;" parent="EBqHYZukkpAn7IfvHrwy-251" vertex="1"><mxGeometry width="30" height="30" as="geometry"/></mxCell><mxCell id="EBqHYZukkpAn7IfvHrwy-253" value="period_renting int8 NOT NULL" style="shape=partialRectangle;connectable=0;fillColor=none;top=0;left=0;bottom=0;right=0;align=left;spacingLeft=6;overflow=hidden;" parent="EBqHYZukkpAn7IfvHrwy-251" vertex="1"><mxGeometry x="30" width="220" height="30" as="geometry"/></mxCell><mxCell id="EBqHYZukkpAn7IfvHrwy-254" value="" style="shape=partialRectangle;collapsible=0;dropTarget=0;pointerEvents=0;fillColor=none;top=0;left=0;bottom=0;right=0;points=[[0,0.5],[1,0.5]];portConstraint=eastwest;" parent="EBqHYZukkpAn7IfvHrwy-244" vertex="1"><mxGeometry y="120" width="250" height="30" as="geometry"/></mxCell><mxCell id="EBqHYZukkpAn7IfvHrwy-255" value="FK" style="shape=partialRectangle;connectable=0;fillColor=none;top=0;left=0;bottom=0;right=0;editable=1;overflow=hidden;" parent="EBqHYZukkpAn7IfvHrwy-254" vertex="1"><mxGeometry width="30" height="30" as="geometry"/></mxCell><mxCell id="EBqHYZukkpAn7IfvHrwy-256" value="car_id int8 NOT NULL" style="shape=partialRectangle;connectable=0;fillColor=none;top=0;left=0;bottom=0;right=0;align=left;spacingLeft=6;overflow=hidden;" parent="EBqHYZukkpAn7IfvHrwy-254" vertex="1"><mxGeometry x="30" width="220" height="30" as="geometry"/></mxCell><mxCell id="EBqHYZukkpAn7IfvHrwy-257" value="" style="shape=partialRectangle;collapsible=0;dropTarget=0;pointerEvents=0;fillColor=none;top=0;left=0;bottom=0;right=0;points=[[0,0.5],[1,0.5]];portConstraint=eastwest;" parent="EBqHYZukkpAn7IfvHrwy-244" vertex="1"><mxGeometry y="150" width="250" height="30" as="geometry"/></mxCell><mxCell id="EBqHYZukkpAn7IfvHrwy-258" value="FK" style="shape=partialRectangle;connectable=0;fillColor=none;top=0;left=0;bottom=0;right=0;editable=1;overflow=hidden;" parent="EBqHYZukkpAn7IfvHrwy-257" vertex="1"><mxGeometry width="30" height="30" as="geometry"/></mxCell><mxCell id="EBqHYZukkpAn7IfvHrwy-259" value="customer_id int8 NULL" style="shape=partialRectangle;connectable=0;fillColor=none;top=0;left=0;bottom=0;right=0;align=left;spacingLeft=6;overflow=hidden;" parent="EBqHYZukkpAn7IfvHrwy-257" vertex="1"><mxGeometry x="30" width="220" height="30" as="geometry"/></mxCell><mxCell id="5GIlZcMNcV6p2C12na3W-5" value="" style="edgeStyle=entityRelationEdgeStyle;fontSize=12;html=1;endArrow=ERoneToMany;startArrow=ERzeroToOne;entryX=0;entryY=0.5;entryDx=0;entryDy=0;exitX=1;exitY=0.5;exitDx=0;exitDy=0;startFill=1;" parent="1" source="EBqHYZukkpAn7IfvHrwy-22" target="EBqHYZukkpAn7IfvHrwy-254" edge="1"><mxGeometry width="100" height="100" relative="1" as="geometry"><mxPoint x="-120" y="290" as="sourcePoint"/><mxPoint x="-20" y="190" as="targetPoint"/></mxGeometry></mxCell><mxCell id="5GIlZcMNcV6p2C12na3W-6" value="" style="fontSize=12;html=1;endArrow=ERoneToMany;startArrow=ERmandOne;exitX=0;exitY=0.5;exitDx=0;exitDy=0;" parent="1" source="EBqHYZukkpAn7IfvHrwy-9" target="EBqHYZukkpAn7IfvHrwy-123" edge="1"><mxGeometry width="100" height="100" relative="1" as="geometry"><mxPoint x="250" y="460" as="sourcePoint"/><mxPoint x="50" y="330" as="targetPoint"/></mxGeometry></mxCell><mxCell id="5GIlZcMNcV6p2C12na3W-11" value="" style="fontSize=12;html=1;endArrow=ERoneToMany;startArrow=ERmandOne;entryX=1;entryY=0.5;entryDx=0;entryDy=0;exitX=0;exitY=0.5;exitDx=0;exitDy=0;" parent="1" source="EBqHYZukkpAn7IfvHrwy-48" target="EBqHYZukkpAn7IfvHrwy-126" edge="1"><mxGeometry width="100" height="100" relative="1" as="geometry"><mxPoint x="-180" y="630" as="sourcePoint"/><mxPoint x="-80" y="530" as="targetPoint"/></mxGeometry></mxCell><mxCell id="5GIlZcMNcV6p2C12na3W-13" value="" style="fontSize=12;html=1;endArrow=ERzeroToMany;startArrow=ERmandOne;exitX=1;exitY=0.5;exitDx=0;exitDy=0;entryX=0;entryY=0.5;entryDx=0;entryDy=0;" parent="1" source="EBqHYZukkpAn7IfvHrwy-148" target="EBqHYZukkpAn7IfvHrwy-197" edge="1"><mxGeometry width="100" height="100" relative="1" as="geometry"><mxPoint x="10" y="890" as="sourcePoint"/><mxPoint x="110" y="790" as="targetPoint"/></mxGeometry></mxCell><mxCell id="5GIlZcMNcV6p2C12na3W-18" value="" style="fontSize=12;html=1;endArrow=ERzeroToMany;startArrow=ERmandOne;exitX=0;exitY=0.5;exitDx=0;exitDy=0;entryX=1;entryY=0.5;entryDx=0;entryDy=0;" parent="1" source="EBqHYZukkpAn7IfvHrwy-215" target="EBqHYZukkpAn7IfvHrwy-157" edge="1"><mxGeometry width="100" height="100" relative="1" as="geometry"><mxPoint x="-50" y="930" as="sourcePoint"/><mxPoint x="50" y="830" as="targetPoint"/></mxGeometry></mxCell><mxCell id="5GIlZcMNcV6p2C12na3W-19" value="" style="fontSize=12;html=1;endArrow=ERzeroToMany;startArrow=ERmandOne;exitX=1;exitY=0.5;exitDx=0;exitDy=0;entryX=0;entryY=0.5;entryDx=0;entryDy=0;" parent="1" source="EBqHYZukkpAn7IfvHrwy-61" target="EBqHYZukkpAn7IfvHrwy-154" edge="1"><mxGeometry width="100" height="100" relative="1" as="geometry"><mxPoint x="-230" y="930" as="sourcePoint"/><mxPoint x="-370" y="930" as="targetPoint"/></mxGeometry></mxCell><mxCell id="5GIlZcMNcV6p2C12na3W-20" value="" style="fontSize=12;html=1;endArrow=ERzeroToMany;startArrow=ERmandOne;exitX=1;exitY=0.5;exitDx=0;exitDy=0;entryX=0;entryY=0.5;entryDx=0;entryDy=0;" parent="1" source="EBqHYZukkpAn7IfvHrwy-201" target="EBqHYZukkpAn7IfvHrwy-151" edge="1"><mxGeometry width="100" height="100" relative="1" as="geometry"><mxPoint x="-387.5" y="825" as="sourcePoint"/><mxPoint x="-330" y="825" as="targetPoint"/></mxGeometry></mxCell><mxCell id="5GIlZcMNcV6p2C12na3W-21" value="" style="fontSize=12;html=1;endArrow=ERoneToMany;startArrow=ERmandOne;exitX=0;exitY=0.5;exitDx=0;exitDy=0;" parent="1" source="EBqHYZukkpAn7IfvHrwy-35" target="EBqHYZukkpAn7IfvHrwy-100" edge="1"><mxGeometry width="100" height="100" relative="1" as="geometry"><mxPoint x="390" y="710" as="sourcePoint"/><mxPoint x="490" y="610" as="targetPoint"/></mxGeometry></mxCell><mxCell id="5GIlZcMNcV6p2C12na3W-23" value="" style="edgeStyle=entityRelationEdgeStyle;fontSize=12;html=1;endArrow=ERzeroToMany;startArrow=ERmandOne;exitX=0;exitY=0.5;exitDx=0;exitDy=0;entryX=1;entryY=0.5;entryDx=0;entryDy=0;" parent="1" source="C-vyLk0tnHw3VtMMgP7b-24" target="EBqHYZukkpAn7IfvHrwy-257" edge="1"><mxGeometry width="100" height="100" relative="1" as="geometry"><mxPoint x="300" y="290" as="sourcePoint"/><mxPoint x="400" y="190" as="targetPoint"/></mxGeometry></mxCell><mxCell id="5GIlZcMNcV6p2C12na3W-27" value="" style="edgeStyle=entityRelationEdgeStyle;fontSize=12;html=1;endArrow=ERzeroToMany;startArrow=ERzeroToOne;exitX=0;exitY=0.5;exitDx=0;exitDy=0;" parent="1" source="C-vyLk0tnHw3VtMMgP7b-3" target="EBqHYZukkpAn7IfvHrwy-117" edge="1"><mxGeometry width="100" height="100" relative="1" as="geometry"><mxPoint x="730" y="180" as="sourcePoint"/><mxPoint x="520" y="240" as="targetPoint"/></mxGeometry></mxCell><mxCell id="5GIlZcMNcV6p2C12na3W-28" value="" style="edgeStyle=entityRelationEdgeStyle;fontSize=12;html=1;endArrow=ERzeroToMany;startArrow=ERzeroToOne;exitX=0;exitY=0.5;exitDx=0;exitDy=0;entryX=1;entryY=0.5;entryDx=0;entryDy=0;" parent="1" source="C-vyLk0tnHw3VtMMgP7b-3" target="EBqHYZukkpAn7IfvHrwy-9" edge="1"><mxGeometry width="100" height="100" relative="1" as="geometry"><mxPoint x="740" y="190" as="sourcePoint"/><mxPoint x="530" y="250" as="targetPoint"/></mxGeometry></mxCell><mxCell id="5GIlZcMNcV6p2C12na3W-29" value="" style="edgeStyle=entityRelationEdgeStyle;fontSize=12;html=1;endArrow=ERoneToMany;startArrow=ERmandOne;exitX=0;exitY=0.5;exitDx=0;exitDy=0;entryX=1;entryY=0.5;entryDx=0;entryDy=0;" parent="1" source="EBqHYZukkpAn7IfvHrwy-74" target="C-vyLk0tnHw3VtMMgP7b-9" edge="1"><mxGeometry width="100" height="100" relative="1" as="geometry"><mxPoint x="1170" y="170" as="sourcePoint"/><mxPoint x="1270" y="70" as="targetPoint"/></mxGeometry></mxCell><mxCell id="5GIlZcMNcV6p2C12na3W-30" value="" style="edgeStyle=entityRelationEdgeStyle;fontSize=12;html=1;endArrow=ERzeroToMany;startArrow=ERmandOne;exitX=0;exitY=0.5;exitDx=0;exitDy=0;entryX=1;entryY=0.5;entryDx=0;entryDy=0;" parent="1" source="EBqHYZukkpAn7IfvHrwy-180" target="EBqHYZukkpAn7IfvHrwy-91" edge="1"><mxGeometry width="100" height="100" relative="1" as="geometry"><mxPoint x="1195" y="260" as="sourcePoint"/><mxPoint x="1295" y="160" as="targetPoint"/></mxGeometry></mxCell><mxCell id="5GIlZcMNcV6p2C12na3W-32" value="" style="edgeStyle=entityRelationEdgeStyle;fontSize=12;html=1;endArrow=ERzeroToMany;startArrow=ERmandOne;exitX=0;exitY=0.5;exitDx=0;exitDy=0;" parent="1" source="EBqHYZukkpAn7IfvHrwy-231" target="EBqHYZukkpAn7IfvHrwy-193" edge="1"><mxGeometry width="100" height="100" relative="1" as="geometry"><mxPoint x="1210" y="420" as="sourcePoint"/><mxPoint x="1310" y="320" as="targetPoint"/></mxGeometry></mxCell></root></mxGraphModel></diagram></mxfile>